<?xml version="1.0" encoding="UTF-8"?>
<svg id="Layer_1" data-name="Layer 1" xmlns="http://www.w3.org/2000/svg" xmlns:xlink="http://www.w3.org/1999/xlink" viewBox="0 0 1200 416.67">
  <defs>
    <style>
      .cls-1 {
        fill: url(#linear-gradient);
      }

      .cls-1, .cls-2, .cls-3, .cls-4, .cls-5, .cls-6, .cls-7 {
        stroke-width: 0px;
      }

      .cls-2 {
        fill: #1e78c1;
      }

      .cls-3 {
        fill: #016082;
      }

      .cls-4 {
        fill: url(#linear-gradient-2);
      }

      .cls-5 {
        fill: #2aa5cc;
      }

      .cls-6 {
        fill: #ef8044;
      }

      .cls-7 {
        fill: #f75821;
      }
    </style>
    <linearGradient id="linear-gradient" x1="459.34" y1="230.63" x2="549.7" y2="312.57" gradientUnits="userSpaceOnUse">
      <stop offset="0" stop-color="#43aeca"/>
      <stop offset="1" stop-color="#1e78c1"/>
    </linearGradient>
    <linearGradient id="linear-gradient-2" x1="428.55" y1="175.25" x2="577.63" y2="175.25" gradientUnits="userSpaceOnUse">
      <stop offset="0" stop-color="#d84200"/>
      <stop offset="1" stop-color="#f77b21"/>
    </linearGradient>
  </defs>
  <g>
    <path class="cls-7" d="M217.08,260.86c-5.24,4.45-11.07,7.87-17.51,10.25-6.44,2.38-13.14,3.57-20.1,3.57-5.34,0-10.48-.69-15.43-2.08-4.95-1.39-9.57-3.35-13.86-5.89-4.29-2.54-8.22-5.58-11.78-9.11-3.56-3.53-6.6-7.46-9.11-11.78-2.51-4.32-4.46-8.96-5.85-13.94-1.39-4.97-2.08-10.13-2.08-15.47s.69-10.47,2.08-15.39c1.39-4.92,3.34-9.54,5.85-13.86s5.55-8.24,9.11-11.78c3.56-3.53,7.48-6.56,11.78-9.07,4.29-2.51,8.91-4.46,13.86-5.85,4.95-1.39,10.09-2.08,15.43-2.08,6.96,0,13.66,1.19,20.1,3.57,6.44,2.38,12.27,5.8,17.51,10.25l-11.78,19.63c-3.4-3.46-7.33-6.16-11.78-8.13-4.45-1.96-9.14-2.94-14.06-2.94s-9.54.94-13.86,2.83c-4.32,1.88-8.1,4.44-11.35,7.66-3.25,3.22-5.81,6.99-7.69,11.31-1.88,4.32-2.83,8.94-2.83,13.86s.94,9.63,2.83,13.98c1.88,4.35,4.45,8.14,7.69,11.39,3.25,3.25,7.03,5.81,11.35,7.69,4.32,1.88,8.94,2.83,13.86,2.83,2.83,0,5.58-.34,8.25-1.02,2.67-.68,5.21-1.62,7.62-2.83v-32.04h21.75v44.44Z"/>
    <path class="cls-7" d="M311.62,272.24h-77.18v-112.6h77.18v22.54h-54.65v22.53h36.98v22.54h-36.98v22.46h54.65v22.54Z"/>
    <path class="cls-7" d="M417.46,272.24h-24.11l-43.42-74.12v74.12h-22.53v-112.6h24.1l43.42,74.2v-74.2h22.54v112.6Z"/>
  </g>
  <g>
    <path class="cls-3" d="M826.38,125.94l-5.39,7.3,2.73,4.1-1.7,2.31-12.17-18.35,1.86-2.52,21.1,6.27-1.7,2.3-4.72-1.4ZM824.14,125.25l-10.69-3.22,6.22,9.27,4.47-6.05Z"/>
    <path class="cls-3" d="M831.34,97.22l8.39,10.15c1.18,1.43,2.4,2.2,3.67,2.31,1.27.11,2.53-.34,3.77-1.37,1.23-1.02,1.9-2.16,2.03-3.43.13-1.27-.4-2.61-1.58-4.04l-8.39-10.15,2.09-1.73,8.38,10.12c1.1,1.33,1.76,2.68,1.98,4.04.22,1.36.05,2.64-.49,3.84-.54,1.2-1.38,2.27-2.52,3.21-1.13.94-2.34,1.56-3.62,1.87-1.28.31-2.56.23-3.85-.25s-2.48-1.38-3.58-2.71l-8.38-10.13,2.09-1.73Z"/>
    <path class="cls-3" d="M869.76,72.45l.99,1.97-5.07,2.54,8.33,16.64-2.43,1.22-8.33-16.64-5.1,2.55-.99-1.98,12.61-6.31Z"/>
    <path class="cls-3" d="M896.08,83.95c-1.75-.53-3.26-1.48-4.53-2.85-1.27-1.37-2.13-3.05-2.58-5.03-.46-1.98-.41-3.86.12-5.65.54-1.79,1.48-3.3,2.83-4.54,1.35-1.24,2.96-2.08,4.85-2.51,1.9-.44,3.73-.39,5.49.13,1.75.53,3.26,1.47,4.51,2.84,1.25,1.37,2.11,3.05,2.57,5.05.46,2,.42,3.89-.11,5.66-.53,1.78-1.47,3.29-2.82,4.53-1.35,1.24-2.97,2.08-4.88,2.52-1.88.43-3.7.39-5.46-.14ZM904.61,79.92c.98-.92,1.66-2.07,2.03-3.44.37-1.37.37-2.86,0-4.47-.38-1.63-1.03-2.98-1.96-4.04-.93-1.06-2.03-1.79-3.31-2.2-1.28-.4-2.63-.44-4.07-.11-1.44.33-2.64.96-3.61,1.88-.97.92-1.64,2.06-2.02,3.42-.37,1.36-.37,2.86,0,4.49.37,1.61,1.02,2.95,1.95,4.03.93,1.07,2.04,1.81,3.33,2.21s2.64.44,4.05.11,2.62-.95,3.6-1.87Z"/>
    <path class="cls-3" d="M947.98,60.67l-1.03,20.64-2.71-.13.77-15.39-7.62,15.05-1.91-.09-6.12-15.76-.77,15.42-2.71-.13,1.03-20.64,2.92.15,6.79,17.44,8.48-16.68,2.89.14Z"/>
    <path class="cls-3" d="M975.02,83.83l-8.64-2.8-3.02,3.89-2.73-.88,13.54-17.36,2.98.97.74,22-2.73-.88-.16-4.92ZM974.97,81.49l-.34-11.16-6.82,8.84,7.16,2.32Z"/>
    <path class="cls-3" d="M1012.32,84.51l-1.13,1.9-4.87-2.91-9.54,15.98-2.33-1.39,9.54-15.98-4.9-2.92,1.13-1.9,12.1,7.22Z"/>
    <path class="cls-3" d="M1028.73,97.35l-13.69,15.68-2.05-1.79,13.69-15.68,2.05,1.79Z"/>
    <path class="cls-3" d="M1029.67,126.46c-.24-1.82.02-3.58.75-5.3s1.92-3.18,3.54-4.41c1.62-1.22,3.36-1.95,5.21-2.19,1.85-.24,3.62,0,5.3.73,1.68.73,3.1,1.86,4.27,3.4,1.17,1.56,1.88,3.24,2.12,5.06.23,1.82-.02,3.58-.75,5.28-.74,1.7-1.92,3.17-3.56,4.4-1.64,1.23-3.38,1.97-5.21,2.21-1.84.24-3.6,0-5.28-.73-1.68-.73-3.11-1.87-4.29-3.43-1.16-1.54-1.86-3.22-2.1-5.04ZM1036.82,132.61c1.24.52,2.56.67,3.97.45,1.4-.22,2.76-.83,4.08-1.83,1.34-1.01,2.3-2.15,2.89-3.43.59-1.28.81-2.59.66-3.92-.15-1.33-.68-2.58-1.56-3.76-.89-1.18-1.95-2.02-3.18-2.54-1.23-.51-2.55-.66-3.95-.45s-2.76.83-4.1,1.83c-1.32,1-2.28,2.14-2.88,3.42-.6,1.29-.82,2.6-.66,3.94.16,1.34.68,2.59,1.55,3.75s1.93,2,3.17,2.53Z"/>
    <path class="cls-3" d="M1051.27,167.49l-1.03-2.52,11.2-16.4-15.34,6.28-1.03-2.51,19.29-7.9,1.03,2.52-11.17,16.39,15.31-6.27,1.03,2.52-19.29,7.9Z"/>
    <path class="cls-3" d="M1078.07,222.91l-20.66-.55.07-2.72,15.41.41-15.22-7.28.05-1.91,15.62-6.49-15.43-.41.07-2.72,20.66.55-.08,2.93-17.28,7.19,16.87,8.1-.08,2.9Z"/>
    <path class="cls-3" d="M1055.52,250.53l2.61-8.7-3.95-2.93.82-2.75,17.66,13.15-.9,3-21.98,1.24.82-2.75,4.91-.27ZM1057.86,250.42l11.15-.59-8.99-6.62-2.16,7.21Z"/>
    <path class="cls-3" d="M1054.57,286.99c-1.57,1-3.26,1.48-5.07,1.44-1.8-.04-3.62-.6-5.46-1.68s-3.2-2.41-4.09-3.96c-.89-1.56-1.27-3.26-1.14-5.12s.78-3.75,1.94-5.71l3.3-5.58,17.92,10.6-3.3,5.58c-1.16,1.95-2.52,3.43-4.1,4.43ZM1041.38,279.48c.51,1.94,1.86,3.57,4.07,4.88,2.23,1.32,4.33,1.73,6.3,1.25,1.98-.48,3.64-1.88,5-4.17l1.92-3.24-14.09-8.33-1.92,3.24c-1.37,2.31-1.8,4.44-1.3,6.38Z"/>
    <path class="cls-3" d="M1037.65,307.5l-5.03-4.81-5.24,5.49-1.62-1.55,5.24-5.49-5.18-4.95-5.86,6.13-1.62-1.55,7.74-8.1,15.07,14.4-7.74,8.1-1.62-1.55,5.86-6.13Z"/>
    <path class="cls-3" d="M988.36,322.56c1.19-.03,2.25.22,3.18.74.93.52,1.65,1.28,2.15,2.3l-2.62,1.24c-.51-.84-1.23-1.41-2.15-1.71-.92-.3-2-.16-3.22.42-1.17.56-1.95,1.29-2.35,2.19-.4.9-.38,1.82.06,2.73.34.72.82,1.21,1.43,1.47.61.26,1.27.37,1.97.32.7-.05,1.62-.18,2.76-.39,1.39-.27,2.54-.42,3.44-.45.9-.03,1.78.17,2.64.61.86.44,1.57,1.24,2.12,2.41.49,1.03.66,2.06.51,3.1-.15,1.04-.59,2-1.33,2.88-.74.88-1.72,1.61-2.94,2.19-1.76.84-3.41,1.08-4.96.74-1.54-.35-2.73-1.21-3.57-2.6l2.7-1.28c.43.68,1.11,1.13,2.04,1.36.92.23,1.94.09,3.03-.43,1.02-.49,1.73-1.15,2.13-1.99.39-.84.37-1.73-.09-2.69-.33-.68-.78-1.15-1.38-1.4s-1.22-.35-1.9-.3c-.67.04-1.59.17-2.75.37-1.4.25-2.56.39-3.47.41s-1.8-.18-2.67-.61c-.87-.44-1.58-1.25-2.15-2.43-.44-.92-.6-1.9-.5-2.94.1-1.04.51-2.04,1.22-2.99.71-.96,1.72-1.74,3.01-2.36,1.24-.59,2.46-.9,3.65-.92Z"/>
    <path class="cls-3" d="M966.99,352.17l-5.37-20.11,2.63-.7,5.37,20.11-2.63.7Z"/>
    <path class="cls-3" d="M926.28,357.04l-.96-20.64,2.71-.13.72,15.39,6.14-15.71,1.91-.09,7.61,15.1-.72-15.42,2.72-.13.96,20.64-2.92.13-8.43-16.71-6.84,17.42-2.89.13Z"/>
    <path class="cls-3" d="M896.1,342.34c1.4-.88,3.28-1.07,5.66-.57l3.92.82,1.79-8.5,2.66.56-4.28,20.37-6.58-1.38c-2.3-.48-3.93-1.41-4.9-2.77-.97-1.36-1.26-2.92-.9-4.67.36-1.7,1.23-2.98,2.62-3.86ZM897.82,344.24c-.84.5-1.38,1.34-1.63,2.53-.53,2.51.65,4.07,3.53,4.68l3.92.82,1.57-7.48-3.92-.82c-1.48-.31-2.64-.22-3.48.28Z"/>
    <path class="cls-3" d="M879.55,328.03l-6.68-2.91.88-2.03,9.17,3.99-8.31,19.09-2.49-1.08,7.42-17.06Z"/>
    <path class="cls-3" d="M848.86,330.09l3.96-5.72-6.24-4.32,1.27-1.84,6.24,4.32,4.08-5.9-6.98-4.82,1.28-1.84,9.21,6.37-11.86,17.14-9.21-6.37,1.27-1.84,6.98,4.82Z"/>
  </g>
  <path class="cls-1" d="M482.78,260.75c1.19.93,1.9.7,2.56.7,11.64,0,23.28-.13,34.91.04,5.28.08,9.26-1.96,12.61-5.82,6.65-7.65,15.02-11.22,25.05-9.22,10.91,2.17,18.88,10.09,20.41,21.67,1.93,14.65-9.22,27.42-23.98,27.44-33.84.06-67.68.03-101.53-.04-12.88-.02-23.45-10.9-23.2-23.78.12-6.39,2.68-11.76,7.23-16.25,10.67-10.54,21.3-21.13,31.96-31.7,2.94-2.92,5.9-5.82,8.84-8.73,3.78-3.74,8.16-5.56,13.64-5.6,9.07-.07,16.27,6.88,17.77,13.76,1.41,6.48.03,12.29-4.69,17.02-6.48,6.49-13.13,12.81-19.72,19.19-.49.48-1.13.8-1.87,1.31ZM464.85,280.93c2.58,0,4.66.06,6.73-.02,1.28-.05,2.04.29,2.64,1.53,1.11,2.27,3.09,3.43,5.65,3.38,2.59-.05,4.66-1.12,5.77-3.52.47-1.01,1-1.36,2.11-1.36,19.76.03,39.51.01,59.27-.02,1.08,0,1.64.31,2.16,1.32,1.21,2.37,3.07,3.8,5.96,3.49,3.25-.35,5.84-2.65,6.18-5.64.34-2.98-1.5-6.09-4.49-6.78-3.25-.74-5.9-.8-7.59,3.07-.56,1.27-1.4,1.21-2.4,1.21-19.63.02-39.26.03-58.89.07-1.1,0-1.8-.2-2.38-1.31-1.23-2.38-3.37-3.43-6.03-3.39-2.56.04-4.38,1.27-5.48,3.55-.33.68-.69,1.09-1.53,1.08-4.28-.04-8.56.11-12.83-.07-3.16-.13-5.68-1.64-6.89-4.73-1.22-3.11-.68-6.03,1.67-8.35,5.86-5.78,11.84-11.44,17.75-17.16.65-.63,1.18-.79,2.13-.42,2.44.96,4.72.36,6.64-1.36,1.97-1.77,2.57-4.08,1.72-6.53-.43-1.25-.04-1.79.76-2.55,3.15-2.98,6.25-6.01,9.37-9.03.6-.58,1.12-1.2.8-2.15-.26-.78-.94-1.06-1.6-1.12-.78-.07-1.36.45-1.92,1.01-3.05,3.08-6.14,6.12-9.21,9.18-.59.59-1.07,1.05-2.1.64-5.1-2.06-10.05,2.91-8.39,7.71.39,1.14.05,1.81-.74,2.56-5.66,5.36-11.23,10.8-16.95,16.1-2.89,2.68-4.15,5.83-3.84,9.72.34,4.23,3.75,8.47,8.03,9.5,2.82.68,5.64.14,7.95.37Z"/>
  <path class="cls-4" d="M525.16,169.13c-8.14,0-15.88,0-23.62,0-4.91,0-9.82.11-14.72-.02-5.07-.14-9,1.94-12.13,5.72-6.34,7.64-14.43,11.33-24.28,10-9.3-1.26-16.01-6.5-19.69-15.22-3.32-7.86-2.87-15.66,1.59-22.93,4.67-7.62,11.8-11.29,20.67-11.31,27.75-.07,55.5-.05,83.25-.06,5.98,0,11.96-.04,17.93-.02,14.94.05,25.63,12.75,23.1,27.48-.76,4.39-2.73,8.21-5.92,11.34-11.58,11.4-23.19,22.77-34.78,34.16-1.97,1.93-3.8,3.99-6.39,5.16-10.31,4.65-22.24.04-25.39-11.39-2.09-7.61.48-13.77,6.05-19,4.58-4.3,9.07-8.7,13.59-13.06.17-.16.31-.35.74-.85ZM543.12,153.28h0c1.45-.01,2.89-.03,4.34,0,3.39.04,6.14,1.82,7.29,4.7,1.25,3.13.56,6.08-2.07,8.55-1.6,1.5-3.32,2.86-4.9,4.38-4.53,4.33-9.03,8.69-13.5,13.08-1.17,1.15-2.75,1.85-3.81,2.98-1.97,2.09-3.86,4.24-6.01,6.17-.97.87-1.7,1.13-2.94.63-2.62-1.05-5.62.1-7.21,2.56-1.66,2.58-1.41,5.77.65,8,1.82,1.98,5.36,2.5,7.83,1.15,2.6-1.42,4-4.46,3.14-7.16-.36-1.11-.18-1.82.68-2.62,5.22-4.87,10.39-9.78,15.57-14.69,4.29-4.06,8.6-8.09,12.85-12.18,3.66-3.54,4.52-7.75,2.66-12.39-1.63-4.05-5.32-6.38-10.29-6.43-2.71-.03-5.41-.09-8.12,0-1.55.05-2.61-.16-3.46-1.76-1.29-2.41-3.76-3.07-6.32-2.77-2.21.25-4.19,1.19-4.95,3.53-.37,1.11-1.14.96-1.93.96-20.14-.01-40.27-.03-60.41-.01-1.09,0-1.64-.36-2.2-1.31-1.44-2.43-4.19-3.63-6.74-3.16-2.97.55-5.32,3.19-5.46,6.15-.14,2.88,1.94,5.67,4.8,6.45,2.92.79,6.14-.56,7.51-3.24.45-.89.79-1.54,2.01-1.54,20.14.03,40.27,0,60.41-.02.98,0,1.5.26,2.01,1.23,2.31,4.36,8.33,5.13,10.91,1.15,1.45-2.24,3.04-2.5,5.2-2.37.81.05,1.64,0,2.45,0Z"/>
  <path class="cls-5" d="M479.85,276.37c1.75-.03,3.06,1.27,3.06,3.04,0,1.69-1.22,2.94-2.91,2.99-1.68.05-3.05-1.18-3.13-2.8-.08-1.58,1.42-3.2,2.99-3.22Z"/>
  <path class="cls-5" d="M476.47,243.92c-1.56.01-2.91-1.29-2.94-2.84-.03-1.66,1.46-3.22,3.07-3.21,1.57,0,2.89,1.3,2.91,2.86.03,1.72-1.35,3.17-3.04,3.18Z"/>
  <path class="cls-5" d="M557.9,279.38c-.04,1.61-1.45,2.94-3.07,2.91-1.63-.04-2.97-1.41-2.95-3.01.03-1.75,1.41-3.07,3.13-2.98,1.63.08,2.92,1.47,2.88,3.09Z"/>
  <path class="cls-6" d="M519.63,202.8c-1.65,0-2.96-1.28-3.01-2.96-.04-1.59,1.34-3.1,2.87-3.13,1.68-.04,3.29,1.54,3.27,3.22-.02,1.54-1.47,2.87-3.13,2.88Z"/>
  <path class="cls-6" d="M530.42,148.75c1.7-.03,2.97,1.17,3.03,2.85.06,1.73-1.27,3.1-3.01,3.1-1.51,0-2.98-1.46-3.02-3.01-.04-1.58,1.32-2.91,3-2.94Z"/>
  <path class="cls-6" d="M454.55,148.85c1.43.03,2.91,1.54,2.91,2.95,0,1.41-1.52,2.89-2.96,2.89-1.73,0-3.12-1.44-3.05-3.15.06-1.41,1.57-2.72,3.11-2.68Z"/>
  <g>
    <g>
      <path class="cls-2" d="M805.34,218.94c0,5.34-.69,10.48-2.08,15.43-1.39,4.95-3.34,9.58-5.85,13.9s-5.55,8.26-9.11,11.82c-3.56,3.56-7.49,6.61-11.78,9.15-4.29,2.54-8.93,4.5-13.9,5.89-4.97,1.39-10.13,2.08-15.47,2.08s-10.48-.69-15.43-2.08c-4.95-1.39-9.58-3.35-13.9-5.89s-8.26-5.59-11.82-9.15c-3.56-3.56-6.61-7.5-9.15-11.82-2.54-4.32-4.5-8.95-5.89-13.9-1.39-4.95-2.08-10.09-2.08-15.43s.69-10.49,2.08-15.47c1.39-4.97,3.35-9.61,5.89-13.9,2.54-4.29,5.59-8.22,9.15-11.78,3.56-3.56,7.5-6.6,11.82-9.11s8.95-4.46,13.9-5.85c4.95-1.39,10.09-2.08,15.43-2.08s10.5.69,15.47,2.08c4.97,1.39,9.6,3.34,13.9,5.85,4.29,2.51,8.22,5.55,11.78,9.11,3.56,3.56,6.59,7.49,9.11,11.78s4.46,8.92,5.85,13.9c1.39,4.97,2.08,10.13,2.08,15.47ZM782.96,218.94c0-4.92-.94-9.57-2.83-13.94-1.88-4.37-4.44-8.17-7.66-11.39s-7.01-5.77-11.38-7.66c-4.37-1.88-9.02-2.83-13.94-2.83s-9.63.94-13.98,2.83c-4.35,1.88-8.14,4.44-11.39,7.66-3.25,3.22-5.81,7.02-7.69,11.39-1.88,4.37-2.83,9.02-2.83,13.94s.94,9.54,2.83,13.86c1.88,4.32,4.45,8.1,7.69,11.35,3.25,3.25,7.04,5.81,11.39,7.69,4.34,1.88,9,2.83,13.98,2.83s9.57-.94,13.94-2.83c4.37-1.88,8.17-4.45,11.38-7.69,3.22-3.25,5.77-7.03,7.66-11.35,1.88-4.32,2.83-8.94,2.83-13.86Z"/>
      <path class="cls-2" d="M863.83,274.77h-22.46v-90.06h-33.84v-22.54h90.06v22.54h-33.76v90.06Z"/>
      <path class="cls-2" d="M902.15,195.94c0-4.66.89-9.03,2.67-13.11s4.2-7.66,7.26-10.72c3.06-3.06,6.63-5.48,10.72-7.26,4.08-1.78,8.45-2.67,13.11-2.67h51.67v22.54h-51.67c-1.57,0-3.04.29-4.4.86-1.36.58-2.55,1.37-3.57,2.39-1.02,1.02-1.82,2.21-2.39,3.57-.58,1.36-.86,2.83-.86,4.4s.29,3.05.86,4.44c.58,1.39,1.37,2.59,2.39,3.61,1.02,1.02,2.21,1.82,3.57,2.39,1.36.58,2.83.86,4.4.86h22.54c4.66,0,9.04.88,13.15,2.63,4.11,1.75,7.7,4.16,10.76,7.22,3.06,3.06,5.47,6.65,7.22,10.76,1.75,4.11,2.63,8.49,2.63,13.15s-.88,9.03-2.63,13.11c-1.75,4.08-4.16,7.66-7.22,10.72-3.06,3.06-6.65,5.48-10.76,7.26-4.11,1.78-8.49,2.67-13.15,2.67h-50.02v-22.54h50.02c1.57,0,3.04-.29,4.4-.86,1.36-.58,2.55-1.37,3.57-2.39,1.02-1.02,1.82-2.21,2.39-3.57.58-1.36.86-2.83.86-4.4s-.29-3.04-.86-4.4c-.58-1.36-1.37-2.55-2.39-3.57s-2.21-1.82-3.57-2.4c-1.36-.58-2.83-.86-4.4-.86h-22.54c-4.66,0-9.03-.89-13.11-2.67-4.08-1.78-7.66-4.2-10.72-7.26-3.06-3.06-5.48-6.65-7.26-10.76s-2.67-8.49-2.67-13.15Z"/>
    </g>
    <g>
      <path class="cls-2" d="M666.36,214.57c.73.35,1.44.68,2.15,1.02,8,3.87,12.55,10.31,13.95,18.99.98,6.12.89,12.25-.57,18.3-2.44,10.07-9.02,16.21-18.68,19.3-5.17,1.66-10.5,2.5-15.91,2.52-18.88.08-37.75.05-56.63.07-.37,0-.73-.05-1.25-.08,0-.56,0-1.04,0-1.53,0-36.44,0-72.88,0-109.33,0-1.64,0-1.65,1.65-1.65,17.87,0,35.74-.03,53.62.02,5.27.01,10.51.48,15.63,1.93,9.68,2.74,15.7,8.93,17.59,18.85,1.24,6.52,1.21,13.05-.65,19.49-1.53,5.27-4.72,9.15-9.76,11.44-.3.14-.61.28-.9.43-.07.04-.11.12-.22.23ZM627.13,189.63c-.54,0-1.04-.03-1.53,0-1.24.1-2.5.54-2.81,1.74-.4,1.55-1.51,1.67-2.65,1.96-.81.21-1.64.34-2.44.58-4.96,1.48-9.15,4.07-11.98,8.52-.38.6-.61,1.4-.61,2.1-.02,4.98.01,9.95.09,14.93,0,.52.23,1.21.6,1.54,2.02,1.8,3.95,3.78,6.22,5.2,6.85,4.3,14.42,5.35,22.3,4.12,6.09-.95,11.44-3.53,15.98-7.79,1.53-1.43,2.15-2.99,2.07-5.08-.14-3.8-.26-7.62-.01-11.41.14-2.19-.53-3.84-1.88-5.33-.98-1.08-2.03-2.12-3.18-3.01-3.35-2.57-7.25-3.91-11.32-4.82-.38-.09-.91-.33-1.04-.63-.86-2.16-1.46-2.6-3.8-2.67-.36-.01-1.02-.21-1.03-.34-.02-.49.09-1.03.32-1.47.18-.34.58-.6.93-.79,2.16-1.12,2.98-2.93,2.81-5.28-.17-2.42-2.24-4.6-4.65-4.87-2.86-.33-5.25,1.2-6.1,3.89-.79,2.51.22,5.18,2.57,6.26,1.22.56,1.49,1.3,1.14,2.63ZM612.08,237.41l.4.17c0,.66,0,1.31,0,1.97.04,2.3-.25,4.65.17,6.88,2.01,10.64,11.11,14.41,18.45,13.43,7.75-1.03,13.98-8.26,13.68-15.49-.08-1.88-.02-3.76,0-5.65,0-.39.06-.79.1-1.18.11-.06.23-.12.34-.18.95,1.01,1.89,2.03,2.85,3.04,1.2,1.27,2.84,1.46,4,.48,1.16-.98,1.27-2.48.03-3.89-2.09-2.39-4.31-4.67-6.51-6.96-.24-.24-.79-.46-1.06-.35-2.47.96-4.91,1.99-7.43,3.03-.09,1.03-.16,2.24-.29,3.44-.48,4.19-4.05,7.26-8.3,7.16-4.28-.1-7.59-3.29-7.85-7.58-.05-.79,0-1.59-.08-2.38-.03-.3-.25-.76-.49-.85-2.61-.97-5.23-1.88-7.92-2.83-2.29,2.47-4.62,4.97-6.94,7.5-.87.95-.91,2.05-.35,3.14.59,1.13,1.69,1.37,2.81,1.11.6-.14,1.2-.56,1.65-1.01.97-.95,1.84-2,2.75-3.02ZM603.19,218.48v-13.9c-2.51-.55-3.31.01-3.3,2.39.02,3.38.11,6.75.16,10.13.01.79.32,1.3,1.13,1.37.64.05,1.3.01,2.01.01ZM654.19,218.62c.8-.08,1.55-.06,2.24-.26.34-.1.8-.59.81-.92.11-3.55.25-7.1.17-10.64-.05-2.31-.82-2.73-3.22-2.21v14.03Z"/>
      <path class="cls-2" d="M646.07,212.86c0,1.55-.06,3.1.02,4.64.06,1.01-.3,1.74-.98,2.44-3.98,4.07-8.82,6.23-14.46,6.63-7.14.51-13.36-1.57-18.45-6.68-.49-.49-.81-1.35-.85-2.06-.17-2.75-.13-5.52-.31-8.27-.2-3.01,1.29-5.1,3.46-6.84,3.37-2.69,7.35-3.96,11.56-4.38,4.25-.42,8.43.12,12.4,1.79,1.07.45,2.1,1.02,3.1,1.63,3.49,2.14,5.24,5.16,4.67,9.34-.08.58-.09,1.17-.13,1.75-.01,0-.02,0-.03,0ZM620.71,208.29c-2.4-.63-5.34,1.54-5.28,4.39.05,2.38,2.25,4.57,4.51,4.41,2.7-.19,4.71-2.61,4.28-5.18-1.65,1.12-3.02,1.11-3.97-.02-.95-1.12-.83-2.25.46-3.6ZM636.83,208.36c1.01,1.55,1.09,2.7.22,3.63-1.3,1.39-2.63.7-3.93-.13-.24,3.04,1.55,5.05,4.41,5.05,2.73,0,4.58-1.94,4.4-4.62-.17-2.58-2.42-4.36-5.1-3.93Z"/>
      <path class="cls-2" d="M628.63,178.69c1.98,0,3.64,1.57,3.66,3.5.03,1.88-1.68,3.65-3.53,3.67-1.9.02-3.63-1.74-3.65-3.72-.02-1.89,1.56-3.45,3.52-3.45Z"/>
    </g>
  </g>
</svg>